<svg width="167" height="27" viewBox="0 0 167 27" fill="none" xmlns="http://www.w3.org/2000/svg">
<path d="M11.3758 3.392V26H8.06376V3.392H0.863756V0.223999H18.5758V3.392H11.3758ZM48.6012 0.223999H52.0572L45.1812 26H41.7972L36.2532 9.008H36.1092L30.5652 26H27.1812L20.0172 0.223999H23.4732L28.9092 20.492H29.0532L34.6332 3.68H37.7292L43.3092 20.492H43.4532L48.6012 0.223999ZM64.0047 3.392V26H60.6927V3.392H53.4927V0.223999H71.2047V3.392H64.0047ZM85.8842 26H82.5722V0.223999H86.6042L99.1322 20.276H99.2762L99.1322 15.308V0.223999H102.444V26H98.9882L85.8842 4.976H85.7402L85.8842 9.944V26ZM114.983 26.576C112.391 26.576 110.255 25.688 108.575 23.912C106.895 22.136 106.055 19.892 106.055 17.18C106.055 14.492 106.871 12.26 108.503 10.484C110.135 8.684 112.223 7.784 114.767 7.784C117.383 7.784 119.459 8.636 120.995 10.34C122.555 12.02 123.335 14.384 123.335 17.432L123.299 17.792H109.439C109.487 19.52 110.063 20.912 111.167 21.968C112.271 23.024 113.591 23.552 115.127 23.552C117.239 23.552 118.895 22.496 120.095 20.384L123.047 21.824C122.255 23.312 121.151 24.476 119.735 25.316C118.343 26.156 116.759 26.576 114.983 26.576ZM109.691 15.056H119.807C119.711 13.832 119.207 12.824 118.295 12.032C117.407 11.216 116.207 10.808 114.695 10.808C113.447 10.808 112.367 11.192 111.455 11.96C110.567 12.728 109.979 13.76 109.691 15.056ZM150.996 8.36L145.308 26H141.924L137.532 12.464L133.176 26H129.828L124.14 8.36H127.596L131.52 21.68H131.556L135.912 8.36H139.332L143.688 21.68H143.724L147.612 8.36H150.996ZM166.652 21.104C166.652 22.64 165.98 23.936 164.636 24.992C163.292 26.048 161.6 26.576 159.56 26.576C157.784 26.576 156.224 26.12 154.88 25.208C153.536 24.272 152.576 23.048 152 21.536L154.952 20.276C155.384 21.332 156.008 22.16 156.824 22.76C157.664 23.336 158.576 23.624 159.56 23.624C160.616 23.624 161.492 23.396 162.188 22.94C162.908 22.484 163.268 21.944 163.268 21.32C163.268 20.192 162.404 19.364 160.676 18.836L157.652 18.08C154.22 17.216 152.504 15.56 152.504 13.112C152.504 11.504 153.152 10.22 154.448 9.26C155.768 8.276 157.448 7.784 159.488 7.784C161.048 7.784 162.452 8.156 163.7 8.9C164.972 9.644 165.86 10.64 166.364 11.888L163.412 13.112C163.076 12.368 162.524 11.792 161.756 11.384C161.012 10.952 160.172 10.736 159.236 10.736C158.372 10.736 157.592 10.952 156.896 11.384C156.224 11.816 155.888 12.344 155.888 12.968C155.888 13.976 156.836 14.696 158.732 15.128L161.396 15.812C164.9 16.676 166.652 18.44 166.652 21.104Z" fill="#2A2A2A"/>
</svg>
